<mxfile host="app.diagrams.net" modified="2023-09-01T14:28:58.368Z" agent="Mozilla/5.0 (X11; Linux x86_64; rv:103.0) Gecko/20100101 Firefox/103.0" etag="ngLtsyQ_LkkDSgh9Qr13" version="21.7.1" type="github">
  <diagram id="R2lEEEUBdFMjLlhIrx00" name="Page-1">
    <mxGraphModel dx="1434" dy="718" grid="1" gridSize="10" guides="1" tooltips="1" connect="1" arrows="1" fold="1" page="1" pageScale="1" pageWidth="850" pageHeight="1100" math="0" shadow="0" extFonts="Permanent Marker^https://fonts.googleapis.com/css?family=Permanent+Marker">
      <root>
        <mxCell id="0" />
        <mxCell id="1" parent="0" />
        <mxCell id="CzyTgsNEIaYF4aeSxrgD-3" style="edgeStyle=orthogonalEdgeStyle;rounded=0;orthogonalLoop=1;jettySize=auto;html=1;exitX=1;exitY=0.5;exitDx=0;exitDy=0;" edge="1" parent="1" source="CzyTgsNEIaYF4aeSxrgD-1">
          <mxGeometry relative="1" as="geometry">
            <mxPoint x="280" y="140" as="targetPoint" />
          </mxGeometry>
        </mxCell>
        <mxCell id="CzyTgsNEIaYF4aeSxrgD-1" value="Vendedor" style="swimlane;childLayout=stackLayout;horizontal=1;startSize=50;horizontalStack=0;rounded=1;fontSize=14;fontStyle=0;strokeWidth=2;resizeParent=0;resizeLast=1;shadow=0;dashed=0;align=center;arcSize=4;whiteSpace=wrap;html=1;" vertex="1" parent="1">
          <mxGeometry x="40" y="80" width="160" height="120" as="geometry" />
        </mxCell>
        <mxCell id="CzyTgsNEIaYF4aeSxrgD-2" value="&lt;div&gt;Código&lt;/div&gt;&lt;div&gt;Nome&lt;/div&gt;&lt;div&gt;Endereço&lt;/div&gt;&lt;div&gt;Comissão&lt;br&gt;&lt;/div&gt;" style="align=left;strokeColor=none;fillColor=none;spacingLeft=4;fontSize=12;verticalAlign=top;resizable=0;rotatable=0;part=1;html=1;" vertex="1" parent="CzyTgsNEIaYF4aeSxrgD-1">
          <mxGeometry y="50" width="160" height="70" as="geometry" />
        </mxCell>
        <mxCell id="CzyTgsNEIaYF4aeSxrgD-5" style="edgeStyle=orthogonalEdgeStyle;rounded=0;orthogonalLoop=1;jettySize=auto;html=1;exitX=1;exitY=0.5;exitDx=0;exitDy=0;" edge="1" parent="1" source="CzyTgsNEIaYF4aeSxrgD-4">
          <mxGeometry relative="1" as="geometry">
            <mxPoint x="480" y="140" as="targetPoint" />
          </mxGeometry>
        </mxCell>
        <mxCell id="CzyTgsNEIaYF4aeSxrgD-4" value="Atende" style="shape=rhombus;perimeter=rhombusPerimeter;whiteSpace=wrap;html=1;align=center;" vertex="1" parent="1">
          <mxGeometry x="280" y="110" width="120" height="60" as="geometry" />
        </mxCell>
        <mxCell id="CzyTgsNEIaYF4aeSxrgD-6" value="Cliente" style="swimlane;childLayout=stackLayout;horizontal=1;startSize=50;horizontalStack=0;rounded=1;fontSize=14;fontStyle=0;strokeWidth=2;resizeParent=0;resizeLast=1;shadow=0;dashed=0;align=center;arcSize=4;whiteSpace=wrap;html=1;" vertex="1" parent="1">
          <mxGeometry x="480" y="80" width="160" height="130" as="geometry" />
        </mxCell>
        <mxCell id="CzyTgsNEIaYF4aeSxrgD-7" value="&lt;div&gt;Código&lt;/div&gt;&lt;div&gt;Nome&lt;/div&gt;&lt;div&gt;Endereço&lt;/div&gt;&lt;div&gt;Faturamento acumulado&lt;/div&gt;&lt;div&gt;Limite de credito&lt;br&gt;&lt;/div&gt;" style="align=left;strokeColor=none;fillColor=none;spacingLeft=4;fontSize=12;verticalAlign=top;resizable=0;rotatable=0;part=1;html=1;" vertex="1" parent="CzyTgsNEIaYF4aeSxrgD-6">
          <mxGeometry y="50" width="160" height="80" as="geometry" />
        </mxCell>
        <mxCell id="CzyTgsNEIaYF4aeSxrgD-8" style="edgeStyle=orthogonalEdgeStyle;rounded=0;orthogonalLoop=1;jettySize=auto;html=1;exitX=0.5;exitY=1;exitDx=0;exitDy=0;" edge="1" parent="1" source="CzyTgsNEIaYF4aeSxrgD-2">
          <mxGeometry relative="1" as="geometry">
            <mxPoint x="120" y="240" as="targetPoint" />
          </mxGeometry>
        </mxCell>
        <mxCell id="CzyTgsNEIaYF4aeSxrgD-10" style="edgeStyle=orthogonalEdgeStyle;rounded=0;orthogonalLoop=1;jettySize=auto;html=1;exitX=0.5;exitY=1;exitDx=0;exitDy=0;" edge="1" parent="1" source="CzyTgsNEIaYF4aeSxrgD-9">
          <mxGeometry relative="1" as="geometry">
            <mxPoint x="120" y="320" as="targetPoint" />
          </mxGeometry>
        </mxCell>
        <mxCell id="CzyTgsNEIaYF4aeSxrgD-9" value="Faz" style="shape=rhombus;perimeter=rhombusPerimeter;whiteSpace=wrap;html=1;align=center;" vertex="1" parent="1">
          <mxGeometry x="80" y="240" width="80" height="40" as="geometry" />
        </mxCell>
        <mxCell id="CzyTgsNEIaYF4aeSxrgD-37" style="edgeStyle=orthogonalEdgeStyle;rounded=0;orthogonalLoop=1;jettySize=auto;html=1;exitX=1;exitY=0.25;exitDx=0;exitDy=0;entryX=0.5;entryY=1;entryDx=0;entryDy=0;" edge="1" parent="1" source="CzyTgsNEIaYF4aeSxrgD-11" target="CzyTgsNEIaYF4aeSxrgD-25">
          <mxGeometry relative="1" as="geometry" />
        </mxCell>
        <mxCell id="CzyTgsNEIaYF4aeSxrgD-11" value="Pedido" style="swimlane;childLayout=stackLayout;horizontal=1;startSize=50;horizontalStack=0;rounded=1;fontSize=14;fontStyle=0;strokeWidth=2;resizeParent=0;resizeLast=1;shadow=0;dashed=0;align=center;arcSize=5;whiteSpace=wrap;html=1;" vertex="1" parent="1">
          <mxGeometry x="40" y="320" width="160" height="120" as="geometry" />
        </mxCell>
        <mxCell id="CzyTgsNEIaYF4aeSxrgD-12" value="&lt;div&gt;Numero&lt;/div&gt;&lt;div&gt;Data&lt;/div&gt;&lt;div&gt;Endereço do cliente&lt;/div&gt;&lt;div&gt;Código do vendedor&lt;br&gt;&lt;/div&gt;" style="align=left;strokeColor=none;fillColor=none;spacingLeft=4;fontSize=12;verticalAlign=top;resizable=0;rotatable=0;part=1;html=1;" vertex="1" parent="CzyTgsNEIaYF4aeSxrgD-11">
          <mxGeometry y="50" width="160" height="70" as="geometry" />
        </mxCell>
        <mxCell id="CzyTgsNEIaYF4aeSxrgD-14" value="Entity" style="swimlane;childLayout=stackLayout;horizontal=1;startSize=50;horizontalStack=0;rounded=1;fontSize=14;fontStyle=0;strokeWidth=2;resizeParent=0;resizeLast=1;shadow=0;dashed=0;align=center;arcSize=4;whiteSpace=wrap;html=1;" vertex="1" parent="1">
          <mxGeometry x="480" y="320" width="160" height="120" as="geometry" />
        </mxCell>
        <mxCell id="CzyTgsNEIaYF4aeSxrgD-15" value="+Attribute1&#xa;+Attribute2&#xa;+Attribute3" style="align=left;strokeColor=none;fillColor=none;spacingLeft=4;fontSize=12;verticalAlign=top;resizable=0;rotatable=0;part=1;html=1;" vertex="1" parent="CzyTgsNEIaYF4aeSxrgD-14">
          <mxGeometry y="50" width="160" height="70" as="geometry" />
        </mxCell>
        <mxCell id="CzyTgsNEIaYF4aeSxrgD-22" style="edgeStyle=orthogonalEdgeStyle;rounded=0;orthogonalLoop=1;jettySize=auto;html=1;exitX=1;exitY=0.5;exitDx=0;exitDy=0;" edge="1" parent="1" source="CzyTgsNEIaYF4aeSxrgD-12">
          <mxGeometry relative="1" as="geometry">
            <mxPoint x="280" y="405" as="targetPoint" />
          </mxGeometry>
        </mxCell>
        <mxCell id="CzyTgsNEIaYF4aeSxrgD-24" style="edgeStyle=orthogonalEdgeStyle;rounded=0;orthogonalLoop=1;jettySize=auto;html=1;exitX=1;exitY=0.5;exitDx=0;exitDy=0;entryX=0;entryY=0.5;entryDx=0;entryDy=0;" edge="1" parent="1" source="CzyTgsNEIaYF4aeSxrgD-23" target="CzyTgsNEIaYF4aeSxrgD-15">
          <mxGeometry relative="1" as="geometry">
            <mxPoint x="470" y="405" as="targetPoint" />
          </mxGeometry>
        </mxCell>
        <mxCell id="CzyTgsNEIaYF4aeSxrgD-23" value="Tem" style="shape=rhombus;perimeter=rhombusPerimeter;whiteSpace=wrap;html=1;align=center;" vertex="1" parent="1">
          <mxGeometry x="280" y="380" width="120" height="50" as="geometry" />
        </mxCell>
        <mxCell id="CzyTgsNEIaYF4aeSxrgD-38" style="edgeStyle=orthogonalEdgeStyle;rounded=0;orthogonalLoop=1;jettySize=auto;html=1;exitX=0.5;exitY=0;exitDx=0;exitDy=0;entryX=0.325;entryY=1.013;entryDx=0;entryDy=0;entryPerimeter=0;" edge="1" parent="1" source="CzyTgsNEIaYF4aeSxrgD-25" target="CzyTgsNEIaYF4aeSxrgD-7">
          <mxGeometry relative="1" as="geometry" />
        </mxCell>
        <mxCell id="CzyTgsNEIaYF4aeSxrgD-25" value="Gera" style="shape=rhombus;perimeter=rhombusPerimeter;whiteSpace=wrap;html=1;align=center;" vertex="1" parent="1">
          <mxGeometry x="280" y="250" width="120" height="60" as="geometry" />
        </mxCell>
        <mxCell id="CzyTgsNEIaYF4aeSxrgD-28" value="1" style="text;html=1;align=center;verticalAlign=middle;resizable=0;points=[];autosize=1;strokeColor=none;fillColor=none;" vertex="1" parent="1">
          <mxGeometry x="195" y="108" width="30" height="30" as="geometry" />
        </mxCell>
        <mxCell id="CzyTgsNEIaYF4aeSxrgD-29" value="1" style="text;html=1;align=center;verticalAlign=middle;resizable=0;points=[];autosize=1;strokeColor=none;fillColor=none;" vertex="1" parent="1">
          <mxGeometry x="195" y="138" width="30" height="30" as="geometry" />
        </mxCell>
        <mxCell id="CzyTgsNEIaYF4aeSxrgD-30" value="N" style="text;html=1;align=center;verticalAlign=middle;resizable=0;points=[];autosize=1;strokeColor=none;fillColor=none;" vertex="1" parent="1">
          <mxGeometry x="455" y="108" width="30" height="30" as="geometry" />
        </mxCell>
        <mxCell id="CzyTgsNEIaYF4aeSxrgD-31" value="1" style="text;html=1;align=center;verticalAlign=middle;resizable=0;points=[];autosize=1;strokeColor=none;fillColor=none;" vertex="1" parent="1">
          <mxGeometry x="455" y="138" width="30" height="30" as="geometry" />
        </mxCell>
        <mxCell id="CzyTgsNEIaYF4aeSxrgD-32" value="1" style="text;html=1;align=center;verticalAlign=middle;resizable=0;points=[];autosize=1;strokeColor=none;fillColor=none;" vertex="1" parent="1">
          <mxGeometry x="115" y="198" width="30" height="30" as="geometry" />
        </mxCell>
        <mxCell id="CzyTgsNEIaYF4aeSxrgD-33" value="N" style="text;html=1;align=center;verticalAlign=middle;resizable=0;points=[];autosize=1;strokeColor=none;fillColor=none;" vertex="1" parent="1">
          <mxGeometry x="115" y="290" width="30" height="30" as="geometry" />
        </mxCell>
        <mxCell id="CzyTgsNEIaYF4aeSxrgD-34" value="1" style="text;html=1;align=center;verticalAlign=middle;resizable=0;points=[];autosize=1;strokeColor=none;fillColor=none;" vertex="1" parent="1">
          <mxGeometry x="205" y="378" width="30" height="30" as="geometry" />
        </mxCell>
        <mxCell id="CzyTgsNEIaYF4aeSxrgD-35" value="N" style="text;html=1;align=center;verticalAlign=middle;resizable=0;points=[];autosize=1;strokeColor=none;fillColor=none;" vertex="1" parent="1">
          <mxGeometry x="455" y="378" width="30" height="30" as="geometry" />
        </mxCell>
        <mxCell id="CzyTgsNEIaYF4aeSxrgD-39" value="N" style="text;html=1;align=center;verticalAlign=middle;resizable=0;points=[];autosize=1;strokeColor=none;fillColor=none;" vertex="1" parent="1">
          <mxGeometry x="205" y="328" width="30" height="30" as="geometry" />
        </mxCell>
        <mxCell id="CzyTgsNEIaYF4aeSxrgD-40" value="N" style="text;html=1;align=center;verticalAlign=middle;resizable=0;points=[];autosize=1;strokeColor=none;fillColor=none;" vertex="1" parent="1">
          <mxGeometry x="485" y="208" width="30" height="30" as="geometry" />
        </mxCell>
      </root>
    </mxGraphModel>
  </diagram>
</mxfile>
